<?xml version="1.0" standalone="no"?>
<!DOCTYPE svg PUBLIC "-//W3C//DTD SVG 20010904//EN"
 "http://www.w3.org/TR/2001/REC-SVG-20010904/DTD/svg10.dtd">
<svg version="1.0" xmlns="http://www.w3.org/2000/svg"
 width="148.000000pt" height="119.000000pt" viewBox="0 0 148.000000 119.000000"
 preserveAspectRatio="xMidYMid meet">

<g transform="translate(0.000000,119.000000) scale(0.100000,-0.100000)"
fill="#000000" stroke="none">
<path d="M601 1134 c-243 -65 -411 -285 -411 -536 0 -51 7 -118 15 -148 49
-184 196 -335 380 -389 65 -20 93 -22 183 -19 119 5 176 21 264 74 252 152
341 470 207 736 -65 130 -211 245 -355 283 -72 19 -211 18 -283 -1z m182 -27
c8 -22 -5 -33 -42 -35 -30 -2 -32 -1 -21 13 11 13 15 13 21 3 6 -9 9 -10 9 -1
0 7 -8 17 -17 22 -15 9 -13 10 13 11 18 0 34 -6 37 -13z m-186 -14 c-4 -3 -3
-11 3 -17 5 -7 5 -18 0 -26 -8 -13 -11 -13 -22 -1 -10 10 -10 12 0 7 6 -4 12
-3 12 3 0 5 -5 11 -12 13 -14 5 -2 28 14 28 6 0 8 -3 5 -7z m323 -29 c0 -8 -4
-14 -10 -14 -5 0 -10 9 -10 21 0 11 5 17 10 14 6 -3 10 -13 10 -21z m-305 -59
c-73 -24 -103 -25 -44 -1 57 23 63 24 89 25 14 0 -6 -11 -45 -24z m300 1 c62
-26 36 -26 -40 0 -48 17 -59 23 -34 20 19 -2 52 -11 74 -20z m147 -11 c2 -11
-2 -20 -9 -19 -7 1 -20 2 -28 3 -21 2 -19 39 3 44 21 4 29 -2 34 -28z m-577
16 c3 -5 1 -12 -5 -16 -6 -4 -8 -11 -5 -16 4 -5 -5 -9 -18 -9 -16 0 -26 7 -30
19 -3 11 -3 21 -1 23 7 8 54 7 59 -1z m294 3 c31 -7 32 -7 26 -53 -11 -80 -12
-81 -60 -81 -24 0 -46 3 -48 8 -3 4 -8 33 -12 64 -7 54 -6 57 16 61 39 7 45 7
78 1z m-196 -99 c15 -31 27 -57 27 -60 0 -2 -16 -16 -36 -31 l-35 -27 -45 44
c-24 24 -44 47 -44 51 0 8 90 77 100 78 3 0 18 -25 33 -55z m408 19 c27 -20
49 -39 49 -43 0 -4 -20 -27 -45 -51 l-44 -44 -38 27 c-24 17 -39 23 -44 16 -5
-8 -13 -8 -28 1 -45 24 -54 12 -71 -95 -9 -55 -20 -100 -25 -100 -9 0 -20 49
-39 168 l-6 37 44 0 c24 0 46 5 48 10 2 7 14 7 36 -1 40 -14 50 -6 82 61 13
27 25 50 28 50 2 0 26 -16 53 -36z m-637 -23 c10 -15 -5 -41 -23 -41 -14 0
-14 2 -1 10 10 6 11 10 3 10 -7 0 -13 7 -13 15 0 16 25 21 34 6z m812 -38 c-2
-3 -13 0 -23 6 -10 6 -12 11 -5 11 6 0 11 3 11 8 -4 22 4 24 12 3 5 -13 7 -26
5 -28z m-770 -18 c-20 -25 -36 -51 -36 -56 0 -5 -5 -9 -10 -9 -7 0 -7 8 1 23
17 33 71 99 76 93 2 -2 -12 -25 -31 -51z m701 12 c18 -23 35 -51 39 -62 5 -15
2 -14 -12 5 -9 14 -31 42 -47 63 -16 20 -25 37 -20 37 4 0 22 -20 40 -43z
m-402 -6 c-16 -14 -75 -31 -75 -21 0 5 15 14 33 19 43 12 53 13 42 2z m-21
-128 c26 -47 43 -90 38 -95 -4 -4 -41 25 -81 66 l-73 73 27 22 c15 11 31 21
36 21 4 0 28 -39 53 -87z m223 70 c15 -10 33 -18 40 -18 8 0 23 -16 34 -35
l21 -35 -28 33 -27 33 -78 -77 c-43 -43 -82 -75 -86 -71 -8 9 77 187 89 187 5
0 21 -8 35 -17z m-368 -52 c-13 -17 -27 -31 -32 -31 -9 0 -1 13 32 53 24 29
24 11 0 -22z m605 5 c7 -18 17 -47 20 -64 8 -34 5 -36 -75 -47 l-47 -7 -14 44
-15 43 56 31 c31 18 57 32 58 33 2 0 9 -14 17 -33z m-857 -3 c7 -2 10 4 7 12
-4 8 -1 15 5 15 6 0 11 -11 11 -25 0 -20 -5 -24 -22 -22 -24 2 -40 25 -30 41
3 5 8 3 11 -5 3 -8 11 -15 18 -16z m153 2 c28 -14 50 -28 50 -32 0 -3 -5 -23
-12 -45 l-12 -40 -45 7 c-65 9 -81 15 -81 29 0 24 32 106 41 106 5 0 32 -11
59 -25z m796 -15 c15 0 15 21 -1 32 -6 5 -5 8 3 8 15 0 26 -25 19 -44 -8 -20
-44 -9 -50 14 -3 11 -2 22 2 25 3 4 7 -3 9 -14 2 -12 10 -21 18 -21z m-615
-76 c51 -25 88 -49 83 -54 -14 -13 -204 20 -204 36 0 14 21 64 27 64 2 0 44
-21 94 -46z m378 9 c6 -20 9 -38 8 -39 -2 -2 -191 -34 -201 -34 -3 0 -6 4 -6
10 0 9 164 98 182 99 4 1 12 -16 17 -36z m-680 -80 c0 -53 -3 -72 -9 -58 -14
33 -9 135 6 135 2 0 4 -35 3 -77z m878 -35 c-2 -24 -4 -7 -4 37 0 44 2 63 4
43 2 -21 2 -57 0 -80z m-718 -8 c-9 -6 -9 -16 0 -40 6 -18 11 -36 11 -41 0 -7
-112 -72 -115 -66 -9 13 -35 92 -35 107 0 20 11 25 83 35 47 6 47 7 47 44 0
53 14 62 18 10 2 -25 -2 -45 -9 -49z m548 23 c-2 -16 -4 -5 -4 22 0 28 2 40 4
28 2 -13 2 -35 0 -50z m-239 26 c4 -31 -20 -53 -47 -44 -47 15 -31 79 18 73
20 -2 27 -9 29 -29z m-539 -11 c0 -31 -1 -31 -10 -10 -5 13 -7 28 -3 33 10 16
14 9 13 -23z m23 -20 c-9 -9 -12 -4 -11 23 0 32 1 33 11 11 8 -17 8 -26 0 -34z
m999 45 c-11 -5 -11 -7 0 -14 11 -6 11 -11 1 -21 -9 -9 -15 -9 -23 -1 -16 16
-4 43 18 42 12 0 14 -2 4 -6z m-566 -33 c8 -12 -175 -104 -186 -93 -5 5 -11
23 -15 40 l-6 31 93 15 c52 8 97 15 101 16 4 1 10 -3 13 -9z m223 -11 c45 -7
82 -16 82 -19 0 -17 -23 -70 -30 -70 -20 0 -179 93 -174 101 3 6 13 8 22 5 10
-3 54 -10 100 -17z m-244 -112 c-25 -48 -49 -87 -53 -87 -5 0 -21 10 -36 21
l-27 22 73 73 c40 41 77 70 81 66 5 -5 -12 -48 -38 -95z m286 -17 c12 17 24
29 27 26 9 -8 -38 -67 -51 -63 -6 2 -22 -4 -35 -14 -13 -11 -29 -19 -35 -19
-15 0 -98 168 -90 182 4 6 40 -23 84 -67 l77 -77 23 32z m153 95 c48 -6 48 -7
41 -38 -3 -18 -12 -47 -20 -65 l-13 -32 -59 32 c-58 32 -59 33 -50 63 5 16 11
35 13 42 2 6 12 10 22 8 10 -2 40 -7 66 -10z m-344 -94 c16 -103 12 -115 -37
-105 -24 5 -31 11 -28 23 2 9 10 53 16 99 8 52 17 81 24 79 6 -2 17 -45 25
-96z m-252 12 c7 -10 18 -26 24 -37 17 -28 -6 -11 -31 24 -23 32 -17 42 7 13z
m710 1 c3 -8 1 -20 -6 -27 -8 -8 -11 -8 -11 0 0 6 -3 18 -6 27 -3 9 -1 16 5
16 7 0 14 -7 18 -16z m30 0 c3 -8 -1 -22 -9 -31 -14 -13 -15 -11 -14 16 1 33
13 41 23 15z m-977 -19 c0 -16 -6 -25 -15 -25 -9 0 -15 9 -15 25 0 16 6 25 15
25 9 0 15 -9 15 -25z m123 -111 c30 -35 36 -54 11 -33 -20 16 -74 95 -73 106
0 4 8 -3 17 -17 9 -13 29 -39 45 -56z m702 6 c-20 -28 -41 -50 -46 -50 -5 0 9
24 31 53 22 28 40 57 41 62 0 6 3 4 6 -3 2 -6 -12 -35 -32 -62z m-527 31 l33
-29 -26 -53 c-15 -30 -29 -55 -30 -57 -5 -5 -45 18 -83 46 l-33 25 48 49 c26
26 50 48 53 48 3 -1 20 -14 38 -29z m422 -16 c43 -44 43 -45 25 -65 -26 -29
-88 -66 -92 -54 -2 5 -17 33 -34 62 -23 41 -34 52 -47 47 -26 -10 -78 -19 -72
-12 3 3 24 12 47 20 30 10 43 11 46 3 2 -6 18 0 38 16 19 15 36 27 39 28 3 0
26 -20 50 -45z m-316 -9 c10 -4 16 -9 13 -12 -8 -8 -77 16 -77 27 0 5 9 5 23
0 12 -5 31 -12 41 -15z m494 -26 c1 -26 -3 -29 -24 -28 -19 2 -24 8 -23 28 0
25 0 25 9 3 5 -13 14 -23 20 -23 14 0 13 17 -2 22 -6 2 -8 10 -4 16 13 21 23
13 24 -18z m-816 2 c-7 -2 -12 -11 -12 -20 0 -15 2 -15 11 -2 9 13 10 13 6 0
-4 -15 -47 -24 -47 -9 0 4 -3 15 -7 25 -5 13 -3 16 10 11 9 -3 19 -2 22 4 4 5
11 6 18 2 8 -5 8 -8 -1 -11z m432 -19 c2 -10 8 -42 11 -70 8 -61 11 -62 90
-34 60 21 71 20 26 -3 -38 -20 -111 -36 -111 -25 0 5 -30 9 -66 9 l-67 0 7 62
c4 34 10 66 12 70 3 4 25 8 49 8 33 0 45 -4 49 -17z m254 -98 c-1 -14 -9 -25
-17 -25 -12 0 -12 3 -3 12 15 15 16 32 2 23 -5 -3 -10 -1 -10 4 0 6 7 11 15
11 10 0 14 -9 13 -25z m-592 -1 c-3 -9 -6 -20 -6 -25 0 -5 -3 -9 -7 -9 -5 0
-8 11 -8 25 0 14 6 25 14 25 8 0 11 -6 7 -16z m214 -36 c0 -4 -6 -6 -12 -3
-96 29 -118 38 -118 44 0 9 130 -32 130 -41z m-55 -25 c8 -21 -12 -42 -34 -36
-17 4 -35 36 -26 45 11 10 55 3 60 -9z m274 -15 c-1 -31 -1 -31 -8 -8 -5 14
-6 28 -4 33 9 15 13 6 12 -25z m34 25 c2 -5 -2 -19 -9 -33 l-13 -25 2 32 c2
31 11 42 20 26z m-165 -49 c-1 -9 -8 -19 -15 -21 -10 -4 -11 8 -4 57 1 2 6 -1
12 -7 6 -6 9 -19 7 -29z"/>
<path d="M761 1094 c0 -11 3 -14 6 -6 3 7 2 16 -1 19 -3 4 -6 -2 -5 -13z"/>
<path d="M1036 1012 c-2 -4 -1 -14 4 -22 7 -11 9 -9 7 8 -1 24 -3 26 -11 14z"/>
<path d="M446 995 c-3 -8 -1 -15 3 -15 5 0 11 7 15 15 3 8 1 15 -3 15 -5 0
-11 -7 -15 -15z"/>
<path d="M730 595 c0 -8 7 -15 15 -15 8 0 15 7 15 15 0 8 -7 15 -15 15 -8 0
-15 -7 -15 -15z"/>
<path d="M586 125 c-3 -8 -1 -15 4 -15 6 0 10 7 10 15 0 8 -2 15 -4 15 -2 0
-6 -7 -10 -15z"/>
</g>
</svg>
